<svg viewBox="0 0 240 240" xmlns="http://www.w3.org/2000/svg" role="img" aria-label="マスコットキャラクター トチノスケ(リサーチポーズ)">
  <ellipse cx="120" cy="215" rx="55" ry="10" fill="#5c1a72" opacity="0.08"/>
  <circle cx="120" cy="130" r="80" fill="#f8f0fc" stroke="#9c36b5" stroke-width="6"/>
  <circle cx="120" cy="130" r="66" fill="none" stroke="#9c36b5" stroke-width="3" opacity="0.5"/>
  <rect x="98" y="42" width="44" height="34" fill="#9c36b5"/>
  <polygon points="92,44 120,24 148,44" fill="#7a2b93"/>
  <rect x="108" y="54" width="10" height="12" fill="#f8f0fc"/>
  <rect x="122" y="54" width="10" height="12" fill="#f8f0fc"/>
  <circle cx="90" cy="150" r="10" fill="#9c36b5" opacity="0.3"/>
  <circle cx="150" cy="150" r="10" fill="#9c36b5" opacity="0.3"/>
  <path d="M93 140 Q100 132 107 140" stroke="#24242b" stroke-width="5" fill="none" stroke-linecap="round"/>
  <path d="M133 140 Q140 132 147 140" stroke="#24242b" stroke-width="5" fill="none" stroke-linecap="round"/>
  <path d="M102 163 Q120 180 138 163" stroke="#5c1a72" stroke-width="4" fill="none" stroke-linecap="round"/>
  <circle cx="188" cy="150" r="24" fill="none" stroke="#5fb87a" stroke-width="7"/>
  <line x1="205" y1="167" x2="218" y2="180" stroke="#5fb87a" stroke-width="7" stroke-linecap="round"/>
  <path d="M160 195 q10 -10 25 -18" stroke="#9c36b5" stroke-width="6" fill="none" stroke-linecap="round"/>
  <path d="M62 195 q-16 3 -20 18" stroke="#9c36b5" stroke-width="6" fill="none" stroke-linecap="round"/>
</svg>
